<mxfile host="app.diagrams.net" agent="Mozilla/5.0 (Windows NT 10.0; Win64; x64; rv:130.0) Gecko/20100101 Firefox/130.0" version="24.7.7">
  <diagram name="Página-1" id="wDYyrvSTDLX9u82SJsVx">
    <mxGraphModel dx="756" dy="394" grid="0" gridSize="10" guides="1" tooltips="1" connect="1" arrows="1" fold="1" page="1" pageScale="1" pageWidth="827" pageHeight="1169" math="0" shadow="0">
      <root>
        <mxCell id="0" />
        <mxCell id="1" parent="0" />
        <mxCell id="ZnnRUoUaj6cAdMIp3xhR-18" value="" style="rounded=0;whiteSpace=wrap;html=1;" vertex="1" parent="1">
          <mxGeometry x="190" y="52" width="400" height="310" as="geometry" />
        </mxCell>
        <mxCell id="ZnnRUoUaj6cAdMIp3xhR-16" style="edgeStyle=orthogonalEdgeStyle;rounded=0;orthogonalLoop=1;jettySize=auto;html=1;exitX=0.5;exitY=0.5;exitDx=0;exitDy=0;exitPerimeter=0;entryX=0;entryY=0.5;entryDx=0;entryDy=0;endArrow=none;endFill=0;" edge="1" parent="1" source="ZnnRUoUaj6cAdMIp3xhR-1" target="ZnnRUoUaj6cAdMIp3xhR-6">
          <mxGeometry relative="1" as="geometry" />
        </mxCell>
        <mxCell id="ZnnRUoUaj6cAdMIp3xhR-17" style="edgeStyle=orthogonalEdgeStyle;rounded=0;orthogonalLoop=1;jettySize=auto;html=1;exitX=0.5;exitY=0.5;exitDx=0;exitDy=0;exitPerimeter=0;endArrow=none;endFill=0;" edge="1" parent="1" source="ZnnRUoUaj6cAdMIp3xhR-1" target="ZnnRUoUaj6cAdMIp3xhR-7">
          <mxGeometry relative="1" as="geometry" />
        </mxCell>
        <mxCell id="ZnnRUoUaj6cAdMIp3xhR-20" style="edgeStyle=orthogonalEdgeStyle;rounded=0;orthogonalLoop=1;jettySize=auto;html=1;exitX=0.5;exitY=0.5;exitDx=0;exitDy=0;exitPerimeter=0;entryX=0;entryY=0.5;entryDx=0;entryDy=0;endArrow=none;endFill=0;" edge="1" parent="1" source="ZnnRUoUaj6cAdMIp3xhR-1" target="ZnnRUoUaj6cAdMIp3xhR-4">
          <mxGeometry relative="1" as="geometry" />
        </mxCell>
        <mxCell id="ZnnRUoUaj6cAdMIp3xhR-1" value="&lt;div&gt;Recepcionista&lt;/div&gt;" style="shape=umlActor;verticalLabelPosition=bottom;verticalAlign=top;html=1;outlineConnect=0;" vertex="1" parent="1">
          <mxGeometry x="130" y="235" width="30" height="60" as="geometry" />
        </mxCell>
        <mxCell id="ZnnRUoUaj6cAdMIp3xhR-12" style="edgeStyle=orthogonalEdgeStyle;rounded=0;orthogonalLoop=1;jettySize=auto;html=1;exitX=0.5;exitY=0.5;exitDx=0;exitDy=0;exitPerimeter=0;endArrow=none;endFill=0;" edge="1" parent="1" source="ZnnRUoUaj6cAdMIp3xhR-2" target="ZnnRUoUaj6cAdMIp3xhR-9">
          <mxGeometry relative="1" as="geometry" />
        </mxCell>
        <mxCell id="ZnnRUoUaj6cAdMIp3xhR-2" value="Veterinário(a)" style="shape=umlActor;verticalLabelPosition=bottom;verticalAlign=top;html=1;outlineConnect=0;" vertex="1" parent="1">
          <mxGeometry x="130" y="95" width="30" height="60" as="geometry" />
        </mxCell>
        <mxCell id="ZnnRUoUaj6cAdMIp3xhR-11" style="edgeStyle=orthogonalEdgeStyle;rounded=0;orthogonalLoop=1;jettySize=auto;html=1;exitX=0.5;exitY=0.5;exitDx=0;exitDy=0;exitPerimeter=0;entryX=1;entryY=0.5;entryDx=0;entryDy=0;endArrow=none;endFill=0;" edge="1" parent="1" source="ZnnRUoUaj6cAdMIp3xhR-3" target="ZnnRUoUaj6cAdMIp3xhR-8">
          <mxGeometry relative="1" as="geometry" />
        </mxCell>
        <mxCell id="ZnnRUoUaj6cAdMIp3xhR-3" value="Dono(a) de animal" style="shape=umlActor;verticalLabelPosition=bottom;verticalAlign=top;html=1;outlineConnect=0;" vertex="1" parent="1">
          <mxGeometry x="640" y="165" width="30" height="60" as="geometry" />
        </mxCell>
        <mxCell id="ZnnRUoUaj6cAdMIp3xhR-4" value="&lt;div&gt;Gerenciar dados&lt;/div&gt;&lt;div&gt;do animal&lt;br&gt;&lt;/div&gt;" style="ellipse;whiteSpace=wrap;html=1;" vertex="1" parent="1">
          <mxGeometry x="300" y="140" width="120" height="50" as="geometry" />
        </mxCell>
        <mxCell id="ZnnRUoUaj6cAdMIp3xhR-6" value="&lt;div&gt;Gerenciar dados&lt;/div&gt;&lt;div&gt;da consulta&lt;br&gt;&lt;/div&gt;" style="ellipse;whiteSpace=wrap;html=1;" vertex="1" parent="1">
          <mxGeometry x="300" y="218" width="120" height="50" as="geometry" />
        </mxCell>
        <mxCell id="ZnnRUoUaj6cAdMIp3xhR-7" value="&lt;div&gt;Gerenciar dados&lt;/div&gt;&lt;div&gt;de dono(a)&lt;br&gt;&lt;/div&gt;" style="ellipse;whiteSpace=wrap;html=1;" vertex="1" parent="1">
          <mxGeometry x="300" y="295" width="120" height="50" as="geometry" />
        </mxCell>
        <mxCell id="ZnnRUoUaj6cAdMIp3xhR-8" value="Pagar conta" style="ellipse;whiteSpace=wrap;html=1;" vertex="1" parent="1">
          <mxGeometry x="440" y="170" width="120" height="50" as="geometry" />
        </mxCell>
        <mxCell id="ZnnRUoUaj6cAdMIp3xhR-9" value="&lt;div&gt;Acessar histórico&lt;/div&gt;&lt;div&gt;médico do animal&lt;br&gt;&lt;/div&gt;" style="ellipse;whiteSpace=wrap;html=1;" vertex="1" parent="1">
          <mxGeometry x="300" y="70" width="120" height="50" as="geometry" />
        </mxCell>
        <mxCell id="ZnnRUoUaj6cAdMIp3xhR-14" style="edgeStyle=orthogonalEdgeStyle;rounded=0;orthogonalLoop=1;jettySize=auto;html=1;" edge="1" parent="1">
          <mxGeometry relative="1" as="geometry">
            <mxPoint x="145" y="180" as="sourcePoint" />
            <mxPoint x="145" y="230" as="targetPoint" />
          </mxGeometry>
        </mxCell>
        <mxCell id="ZnnRUoUaj6cAdMIp3xhR-19" value="Sistema clínica veterinária" style="text;html=1;align=center;verticalAlign=middle;whiteSpace=wrap;rounded=0;" vertex="1" parent="1">
          <mxGeometry x="185" y="49" width="163" height="30" as="geometry" />
        </mxCell>
      </root>
    </mxGraphModel>
  </diagram>
</mxfile>
